<?xml version="1.0" encoding="utf-8"?>
<!-- Generator: Adobe Illustrator 23.0.1, SVG Export Plug-In . SVG Version: 6.00 Build 0)  -->
<svg version="1.1" id="Camada_1" xmlns="http://www.w3.org/2000/svg" xmlns:xlink="http://www.w3.org/1999/xlink" x="0px" y="0px"
	 viewBox="0 0 1000 1000" style="enable-background:new 0 0 1000 1000;" xml:space="preserve">
<g>
	<g>
		<path d="M153.87,690.59c0.59-1.91,1.16-3.86,1.71-5.81h-46.86c0.55,1.96,1.12,3.9,1.71,5.81H153.87z"/>
	</g>
	<path d="M21.65,414.99v34.67c1.87,0.75,3.81,1.47,5.81,2.18v-39.03C25.46,413.52,23.52,414.24,21.65,414.99z"/>
	<path d="M983.58,406.99l-37.72-4.58c-6.64-7.64-16.41-12.5-27.34-12.5c-20.01,0-36.24,16.22-36.24,36.24v12.36
		c0,20.01,16.22,36.24,36.24,36.24c10.92,0,20.69-4.85,27.34-12.5l37.72-4.58c9.29-1.13,16.42-12.14,16.42-25.34v0
		C1000,419.12,992.87,408.12,983.58,406.99z"/>
	<path d="M582.28,180.25l-4.58-37.72c-1.13-9.29-12.14-16.42-25.34-16.42c-13.2,0-24.21,7.13-25.34,16.42l-4.58,37.72
		c-7.64,6.64-12.5,16.41-12.5,27.34v0c0,20.01,16.22,36.24,36.24,36.24h12.36c20.01,0,36.24-16.22,36.24-36.24v0
		C594.78,196.66,589.93,186.89,582.28,180.25z"/>
	<path d="M854.71,655.34c0-20.01-16.22-36.24-36.24-36.24h-12.36c-20.01,0-36.24,16.22-36.24,36.24c0,10.92,4.85,20.69,12.5,27.34
		l4.58,37.72c1.13,9.29,12.14,16.42,25.34,16.42c13.2,0,24.21-7.13,25.34-16.42l4.58-37.72
		C849.85,676.03,854.71,666.26,854.71,655.34z"/>
	<rect x="855.46" y="400.29" width="72.11" height="64.08"/>
	<g>
		<g>
			<path d="M144.84,713.16c0.98-1.79,1.94-3.73,2.87-5.81h-31.12c0.93,2.08,1.89,4.02,2.87,5.81H144.84z"/>
		</g>
		<g>
			<path d="M122.92,718.63c2.92,3.89,6.02,6.2,9.23,6.2h0c3.21,0,6.3-2.31,9.23-6.2H122.92z"/>
		</g>
	</g>
	<g>
		<path d="M149.98,701.88c0.73-1.88,1.43-3.82,2.11-5.81h-39.88c0.68,1.99,1.39,3.94,2.11,5.81H149.98z"/>
	</g>
	<g>
		<path d="M584.05,208.5l-64.08,0l0.05,366.27c0,1.29-0.07,2.55-0.23,3.83c-2.06,16.9-13.95,82.16-74.25,82.16
			c-63.14,0-67.46-73.83-67.75-83.11V275.33l-0.11-2.62c-4.09-49.86-38.42-144.16-139-144.16c-100.7,0-134.6,94.4-138.47,144.31
			l-0.1,1.23v362.76c0,7.64,2.68,25.09,7.14,42.46h49.8c4.47-17.36,7.14-34.81,7.14-42.46l0.26-362.76
			c2.06-16.9,13.91-81.46,74.22-81.46c60.38,0,72.63,65.27,74.78,82.16c0.17,1.33,0.24,2.63,0.24,3.97l0,299.3l0,0.6
			c0.95,50.56,29.72,146.18,131.83,146.18c100.7,0,134.61-94.4,138.47-144.31l0.1-1.24L584.05,208.5z"/>
	</g>
	<g>
		<path d="M786.96,175.38c-4.24,16.8-6.77,33.49-6.77,41.15l0.06,413.85c0,18.29,14.35,33.12,32.04,33.12h0
			c17.7,0,32.04-14.83,32.04-33.12V216.53c0-7.66-2.52-24.35-6.75-41.15H786.96z"/>
	</g>
	<g>
		<path d="M790.08,164.09c-0.58,1.92-1.14,3.86-1.68,5.81h47.74c-0.54-1.95-1.1-3.9-1.67-5.81H790.08z"/>
	</g>
	<g>
		<path d="M793.88,152.81c-0.71,1.88-1.4,3.82-2.06,5.81h40.91c-0.66-1.99-1.35-3.93-2.06-5.81H793.88z"/>
	</g>
	<g>
		<path d="M798.84,141.52c-0.94,1.8-1.86,3.75-2.75,5.81h32.39c-0.89-2.06-1.8-4.01-2.74-5.81H798.84z"/>
	</g>
	<g>
		<path d="M822.48,136.05c-3.2-4.66-6.63-7.5-10.19-7.5h0c-3.56,0-6.99,2.84-10.19,7.5H822.48z"/>
	</g>
	<g>
		<path d="M4.89,424.15C1.81,426.76,0,429.5,0,432.33v0c0,2.83,1.81,5.57,4.89,8.18V424.15z"/>
		<path d="M10.36,420.37v23.92c1.77,1.03,3.71,2.04,5.81,3.02v-29.96C14.08,418.33,12.13,419.33,10.36,420.37z"/>
	</g>
	<path d="M32.93,410.99v42.67c1.91,0.6,3.85,1.19,5.81,1.75v-46.17C36.78,409.8,34.84,410.39,32.93,410.99z"/>
	<path d="M44.22,407.74v49.18c17.71,4.65,35.75,7.45,43.57,7.45h213.14v-64.08H87.79C79.97,400.29,61.93,403.09,44.22,407.74z"/>
	<rect x="390.53" y="400.29" width="379.63" height="64.08"/>
</g>
</svg>
